<?xml version="1.0" encoding="UTF-8"?>
<svg id="Layer_1" data-name="Layer 1" xmlns="http://www.w3.org/2000/svg" viewBox="0 0 780.86 378.4">
  <defs>
    <style>
      .cls-1 {
        fill: #fff;
      }
    </style>
  </defs>
  <g>
    <rect class="cls-1" x="85.57" y="8.32" width="48.47" height="48.47" rx="24.23" ry="24.23"/>
    <path class="cls-1" d="M216.47,348.04l-45.14-141.28c-.36-1.14-.58-2.32-.65-3.52l-4.41-78.87c-.12-2.17.26-4.34,1.11-6.34l41.33-97.01c2.91-6.84.42-14.78-5.89-18.72h0c-7.65-4.78-17.77-1.83-21.64,6.32l-36.55,76.92c-2.72,5.73-8.92,8.94-15.17,7.88l-112.92-19.33C7.82,72.59-.11,79.38,0,88.22h0c.09,6.52,4.62,12.14,10.98,13.61l107.9,24.8c6.3,1.45,10.82,6.98,10.98,13.44l1.34,53.44c.16,6.57-4.22,12.39-10.58,14.05l-102.24,26.67c-10.39,2.71-17.64,12.1-17.64,22.84h0c0,16.3,16.12,27.69,31.48,22.25l96.74-34.26c7.97-2.82,16.63,1.93,18.52,10.17l24.13,105.11c2.43,10.57,11.84,18.07,22.68,18.07h0c15.76,0,26.97-15.34,22.17-30.36Z"/>
  </g>
  <g>
    <path class="cls-1" d="M414.36,103.58c.05,2.89-.93,5.3-2.94,7.21-2.01,1.91-4.88,2.87-8.61,2.87-3.23,0-5.84-.66-7.8-1.99-1.96-1.32-4.07-3.26-6.33-5.81l-36.64-40.47h-.29v34.88c0,4.22-1.11,7.5-3.31,9.86-2.21,2.35-5.47,3.53-9.79,3.53s-7.58-1.18-9.79-3.53c-2.2-2.36-3.31-5.64-3.31-9.86V20.5c0-4.21,1.11-7.47,3.31-9.78,2.21-2.31,5.47-3.46,9.79-3.46s7.45,1.15,9.71,3.46c2.26,2.31,3.39,5.57,3.39,9.78v32.67h.29l36.5-39.73c1.67-1.96,3.53-3.48,5.59-4.56,2.06-1.08,4.42-1.62,7.06-1.62,3.93,0,6.77,1.03,8.54,3.09s2.57,4.44,2.43,7.14c-.15,2.7-1.25,5.17-3.31,7.43l-31.47,32.99,33.23,37.21c2.45,2.74,3.7,5.57,3.75,8.46Z"/>
    <path class="cls-1" d="M440.33,28.01c-4.51,0-8.02-1.08-10.52-3.24-2.5-2.16-3.75-5.25-3.75-9.27s1.25-6.94,3.75-9.05c2.5-2.11,6.01-3.16,10.52-3.16s8.14,1.06,10.6,3.16c2.45,2.11,3.68,5.13,3.68,9.05s-1.23,7.11-3.68,9.27c-2.45,2.16-5.99,3.24-10.6,3.24ZM440.33,113.66c-4.12,0-7.28-1.2-9.49-3.61-2.21-2.4-3.31-5.81-3.31-10.23v-47.39c0-4.51,1.1-7.95,3.31-10.3,2.21-2.35,5.37-3.53,9.49-3.53s7.16,1.18,9.42,3.53c2.26,2.35,3.38,5.79,3.38,10.3v47.39c0,4.42-1.1,7.83-3.31,10.23-2.21,2.4-5.37,3.61-9.49,3.61Z"/>
    <path class="cls-1" d="M542.47,69.36v31.5c0,4.12-1.11,7.28-3.32,9.49-2.2,2.2-5.37,3.31-9.49,3.31s-7.14-1.11-9.34-3.31c-2.21-2.21-3.31-5.37-3.31-9.49v-30.47c0-4.41-.81-7.62-2.43-9.64-1.62-2.01-3.95-3.01-6.99-3.01-4.03,0-7.26,1.3-9.71,3.9-2.46,2.6-3.68,6.06-3.68,10.37v28.85c0,8.53-4.27,12.8-12.81,12.8-4.12,0-7.28-1.11-9.49-3.31-2.21-2.21-3.31-5.37-3.31-9.49v-49.3c0-4.22,1.1-7.44,3.31-9.64,2.21-2.21,5.32-3.31,9.35-3.31s6.94,1.1,9.05,3.31c1.85,1.93,2.89,4.65,3.11,8.13,2.21-3.33,5.07-5.99,8.59-7.99,4.41-2.5,9.41-3.75,15.01-3.75s10.42,1.13,14.2,3.39c3.77,2.25,6.59,5.69,8.46,10.3,1.86,4.61,2.8,10.4,2.8,17.36Z"/>
    <path class="cls-1" d="M625.83,80.03c1.13-.93,1.69-2.38,1.69-4.34,0-5.69-.83-10.84-2.5-15.45-1.67-4.61-4.05-8.54-7.13-11.77-3.1-3.24-6.8-5.74-11.12-7.51-4.31-1.77-9.17-2.65-14.56-2.65-7.36,0-13.91,1.62-19.65,4.86s-10.23,7.65-13.47,13.24c-3.23,5.59-4.85,12.12-4.85,19.58,0,7.85,1.71,14.59,5.15,20.23,3.43,5.64,8.31,10.01,14.64,13.1,6.33,3.09,13.91,4.63,22.74,4.63,3.92,0,7.84-.39,11.77-1.17,3.92-.79,7.55-2.07,10.89-3.83,2.26-.98,3.87-2.36,4.86-4.12.98-1.77,1.42-3.58,1.32-5.45-.1-1.86-.66-3.53-1.69-5-1.03-1.47-2.48-2.48-4.34-3.02-1.87-.53-4.03-.31-6.48.67-2.65.98-5.39,1.74-8.24,2.28-2.85.54-5.35.81-7.5.81-6.58,0-11.43-1.55-14.57-4.64-2.13-2.1-3.54-5.12-4.22-9.05h42.18c2.26,0,3.95-.46,5.08-1.4ZM578.38,69.22c.28-2.16.77-4.07,1.46-5.74,1.18-2.85,2.92-5.01,5.23-6.48,2.3-1.47,5.02-2.21,8.17-2.21,2.94,0,5.39.62,7.35,1.84,1.96,1.23,3.46,3.02,4.49,5.37.85,1.94,1.35,4.35,1.5,7.22h-28.2Z"/>
    <path class="cls-1" d="M675.35,113.96c-7.95,0-14.89-1.52-20.82-4.56-5.94-3.04-10.55-7.41-13.83-13.1-3.29-5.69-4.93-12.41-4.93-20.16,0-5.89.93-11.16,2.8-15.82,1.86-4.66,4.54-8.63,8.02-11.92,3.48-3.29,7.67-5.79,12.58-7.51,4.9-1.72,10.3-2.58,16.19-2.58,8.04,0,15.03,1.52,20.97,4.56,5.93,3.04,10.54,7.38,13.83,13.02,3.29,5.64,4.93,12.39,4.93,20.23,0,5.89-.93,11.14-2.8,15.75-1.87,4.61-4.54,8.59-8.02,11.92-3.48,3.34-7.68,5.86-12.58,7.58-4.91,1.72-10.35,2.58-16.33,2.58ZM675.35,95.12c2.84,0,5.32-.66,7.43-1.99,2.11-1.32,3.75-3.38,4.93-6.18,1.18-2.8,1.77-6.4,1.77-10.82,0-6.67-1.3-11.5-3.9-14.5-2.6-2.99-6.01-4.49-10.23-4.49-2.65,0-5.05.66-7.21,1.99-2.16,1.32-3.83,3.38-5,6.18-1.18,2.8-1.77,6.4-1.77,10.82,0,6.67,1.3,11.5,3.9,14.5,2.6,2.99,5.96,4.49,10.08,4.49Z"/>
    <path class="cls-1" d="M339.09,243.8c-4.42,0-7.78-1.15-10.08-3.46-2.31-2.3-3.46-5.67-3.46-10.08v-76.67c0-4.42,1.15-7.77,3.46-10.08s5.67-3.46,10.08-3.46h28.84c17.95,0,31.86,4.49,41.72,13.46,9.86,8.98,14.79,21.76,14.79,38.34,0,8.34-1.28,15.7-3.83,22.07-2.55,6.38-6.25,11.8-11.11,16.26-4.86,4.46-10.74,7.85-17.66,10.15-6.92,2.31-14.89,3.46-23.91,3.46h-28.84ZM351.74,222.46h14.57c5.2,0,9.74-.64,13.61-1.91,3.88-1.27,7.09-3.16,9.64-5.67,2.55-2.5,4.46-5.67,5.74-9.49,1.27-3.83,1.91-8.34,1.91-13.54,0-10.3-2.55-17.95-7.65-22.96-5.1-5-12.85-7.5-23.25-7.5h-14.57v61.07Z"/>
    <path class="cls-1" d="M511.2,173.38c-2.11-2.21-5.18-3.31-9.2-3.31s-7.14,1.1-9.35,3.31c-1.82,1.83-2.89,4.34-3.21,7.54-1.69-2.85-4.18-5.26-7.46-7.24-4.31-2.6-9.22-3.9-14.71-3.9-6.28,0-11.8,1.52-16.56,4.56-4.76,3.04-8.46,7.38-11.11,13.02-2.65,5.64-3.97,12.39-3.97,20.24s1.35,14.47,4.05,20.16c2.69,5.69,6.42,10.06,11.18,13.1,4.76,3.04,10.23,4.56,16.41,4.56,5.59,0,10.59-1.38,15.01-4.12,3.15-1.96,5.53-4.38,7.13-7.24.27,3.28,1.33,5.86,3.17,7.75,2.16,2.21,5.3,3.31,9.42,3.31s7.09-1.1,9.2-3.31c2.1-2.21,3.16-5.37,3.16-9.49v-49.3c0-4.22-1.06-7.43-3.16-9.64ZM482.65,224.59c-2.11,1.33-4.59,1.99-7.43,1.99-4.12,0-7.49-1.49-10.08-4.49-2.61-2.99-3.9-7.82-3.9-14.49,0-4.42.58-8.02,1.76-10.82,1.18-2.8,2.84-4.86,5-6.18s4.57-1.99,7.22-1.99c4.21,0,7.62,1.5,10.22,4.49,2.6,3,3.9,7.83,3.9,14.5,0,4.41-.59,8.02-1.76,10.81-1.18,2.8-2.82,4.86-4.93,6.18Z"/>
    <path class="cls-1" d="M603.69,200.83v31.49c0,4.12-1.11,7.28-3.31,9.49-2.21,2.21-5.38,3.31-9.5,3.31s-7.13-1.1-9.34-3.31c-2.21-2.21-3.31-5.37-3.31-9.49v-30.46c0-4.42-.81-7.63-2.43-9.64-1.62-2.01-3.95-3.02-6.99-3.02-4.02,0-7.26,1.3-9.71,3.9-2.46,2.6-3.68,6.06-3.68,10.38v28.84c0,8.54-4.27,12.8-12.81,12.8-4.12,0-7.28-1.1-9.49-3.31-2.2-2.21-3.31-5.37-3.31-9.49v-49.3c0-4.22,1.11-7.43,3.31-9.64,2.21-2.21,5.32-3.31,9.35-3.31s6.94,1.1,9.05,3.31c1.85,1.94,2.89,4.65,3.11,8.14,2.21-3.34,5.07-6,8.59-7.99,4.41-2.5,9.42-3.75,15.01-3.75s10.42,1.13,14.2,3.38c3.77,2.26,6.6,5.69,8.46,10.3,1.86,4.62,2.8,10.4,2.8,17.37Z"/>
    <path class="cls-1" d="M655.48,245.42c-8.04,0-15.08-1.55-21.12-4.64-6.03-3.09-10.69-7.48-13.98-13.17-3.29-5.69-4.93-12.41-4.93-20.16,0-5.79.93-11.01,2.8-15.67,1.86-4.66,4.56-8.63,8.09-11.92,3.53-3.29,7.75-5.79,12.66-7.51,4.9-1.71,10.4-2.58,16.48-2.58,2.84,0,5.86.29,9.05.88,3.19.59,6.5,1.67,9.93,3.24,2.16.88,3.7,2.21,4.64,3.97.93,1.77,1.32,3.66,1.18,5.67-.15,2.01-.74,3.8-1.77,5.37-1.03,1.57-2.43,2.65-4.19,3.24-1.77.59-3.73.34-5.89-.74-1.67-.88-3.41-1.52-5.22-1.91-1.82-.39-3.56-.59-5.22-.59-2.55,0-4.88.42-6.99,1.25-2.11.83-3.85,2.06-5.22,3.68-1.38,1.62-2.43,3.56-3.16,5.81-.74,2.26-1.1,4.91-1.1,7.95,0,5.79,1.45,10.35,4.34,13.69,2.89,3.34,6.94,5,12.14,5,1.67,0,3.38-.2,5.15-.59,1.77-.39,3.53-.98,5.3-1.77,2.16-1.08,4.09-1.32,5.81-.74,1.71.59,3.09,1.67,4.12,3.24,1.03,1.57,1.59,3.36,1.69,5.37.1,2.01-.32,3.9-1.25,5.67-.93,1.77-2.48,3.09-4.63,3.97-3.34,1.47-6.57,2.5-9.71,3.09-3.14.59-6.13.88-8.98.88Z"/>
    <path class="cls-1" d="M758.13,211.5c1.13-.93,1.69-2.38,1.69-4.34,0-5.69-.83-10.84-2.5-15.46-1.67-4.61-4.05-8.53-7.14-11.77-3.09-3.24-6.79-5.74-11.11-7.5-4.31-1.77-9.17-2.65-14.57-2.65-7.35,0-13.9,1.62-19.64,4.85-5.74,3.24-10.23,7.66-13.47,13.25-3.24,5.59-4.85,12.12-4.85,19.57,0,7.85,1.71,14.59,5.15,20.23,3.43,5.65,8.31,10.01,14.64,13.1,6.33,3.09,13.91,4.64,22.74,4.64,3.92,0,7.84-.4,11.77-1.18,3.92-.78,7.55-2.06,10.89-3.83,2.25-.98,3.87-2.35,4.86-4.12.97-1.76,1.42-3.58,1.32-5.44-.1-1.86-.66-3.53-1.69-5.01-1.03-1.47-2.48-2.47-4.34-3.01-1.87-.54-4.03-.32-6.48.66-2.65.98-5.4,1.74-8.24,2.28-2.85.54-5.35.81-7.51.81-6.57,0-11.43-1.54-14.56-4.63-2.14-2.11-3.55-5.12-4.22-9.06h42.18c2.26,0,3.95-.46,5.08-1.39ZM710.69,200.68c.27-2.15.76-4.06,1.45-5.74,1.18-2.84,2.92-5,5.23-6.47,2.3-1.48,5.02-2.21,8.16-2.21,2.95,0,5.4.61,7.36,1.84,1.96,1.23,3.46,3.02,4.49,5.37.85,1.93,1.35,4.34,1.5,7.21h-28.19Z"/>
    <path class="cls-1" d="M363.66,376.89c-3.92,0-8-.29-12.21-.88-4.22-.59-8.29-1.42-12.21-2.5-3.92-1.08-7.41-2.4-10.45-3.97-2.45-1.18-4.19-2.82-5.22-4.93-1.03-2.11-1.4-4.29-1.1-6.55.29-2.26,1.08-4.27,2.35-6.03,1.27-1.77,3.02-2.94,5.22-3.53s4.68-.24,7.43,1.03c3.83,1.96,8.09,3.41,12.8,4.34,4.71.93,9.17,1.4,13.39,1.4,6.57,0,11.23-.91,13.98-2.72,2.75-1.81,4.12-4.05,4.12-6.7,0-2.45-.96-4.39-2.87-5.81-1.91-1.42-5.27-2.62-10.08-3.61l-17.07-3.53c-9.42-2.06-16.41-5.52-20.97-10.38-4.56-4.86-6.84-11.16-6.84-18.91,0-5.1,1.05-9.71,3.16-13.83,2.11-4.12,5.08-7.65,8.9-10.6s8.39-5.22,13.69-6.84c5.3-1.62,11.23-2.43,17.81-2.43,5.1,0,10.28.59,15.53,1.77,5.25,1.18,9.83,2.89,13.76,5.15,2.16,1.18,3.7,2.8,4.63,4.86.93,2.06,1.3,4.12,1.1,6.18-.2,2.06-.96,3.92-2.28,5.59-1.32,1.67-3.04,2.75-5.15,3.24-2.11.49-4.69.1-7.73-1.18-2.85-1.37-6.06-2.38-9.64-3.02-3.58-.64-7.14-.96-10.67-.96s-6.77.44-9.42,1.33c-2.65.88-4.66,2.16-6.03,3.83-1.38,1.67-2.06,3.58-2.06,5.74s.91,3.97,2.72,5.44c1.81,1.47,5.08,2.7,9.79,3.68l16.92,3.68c9.51,2.06,16.63,5.45,21.34,10.15s7.06,10.84,7.06,18.4c0,5-1.03,9.54-3.09,13.61-2.06,4.07-4.98,7.58-8.76,10.52-3.78,2.94-8.37,5.18-13.76,6.7-5.4,1.52-11.43,2.28-18.1,2.28Z"/>
    <path class="cls-1" d="M455.78,376.89c-8.04,0-15.08-1.55-21.12-4.64-6.03-3.09-10.69-7.48-13.98-13.17-3.29-5.69-4.93-12.41-4.93-20.16,0-5.79.93-11.01,2.8-15.67,1.86-4.66,4.56-8.63,8.09-11.92,3.53-3.29,7.75-5.79,12.66-7.51,4.9-1.71,10.4-2.58,16.48-2.58,2.84,0,5.86.29,9.05.88,3.19.59,6.5,1.67,9.93,3.24,2.16.88,3.7,2.21,4.64,3.97.93,1.77,1.32,3.66,1.18,5.67-.15,2.01-.74,3.8-1.77,5.37-1.03,1.57-2.43,2.65-4.19,3.24-1.77.59-3.73.34-5.89-.74-1.67-.88-3.41-1.52-5.22-1.91-1.82-.39-3.56-.59-5.22-.59-2.55,0-4.88.42-6.99,1.25-2.11.83-3.85,2.06-5.22,3.68-1.38,1.62-2.43,3.56-3.16,5.81-.74,2.26-1.1,4.91-1.1,7.95,0,5.79,1.45,10.35,4.34,13.69,2.89,3.34,6.94,5,12.14,5,1.67,0,3.38-.2,5.15-.59,1.77-.39,3.53-.98,5.3-1.77,2.16-1.08,4.09-1.32,5.81-.74,1.71.59,3.09,1.67,4.12,3.24,1.03,1.57,1.59,3.36,1.69,5.37.1,2.01-.32,3.9-1.25,5.67-.93,1.77-2.48,3.09-4.63,3.97-3.34,1.47-6.57,2.5-9.71,3.09-3.14.59-6.13.88-8.98.88Z"/>
    <path class="cls-1" d="M563.95,332.29v31.49c0,4.12-1.1,7.29-3.31,9.5-2.21,2.2-5.37,3.31-9.49,3.31s-7.14-1.11-9.35-3.31c-2.2-2.21-3.31-5.38-3.31-9.5v-30.46c0-4.41-.81-7.63-2.43-9.64-1.62-2.01-3.95-3.01-6.99-3.01-4.02,0-7.26,1.3-9.71,3.9-2.45,2.6-3.68,6.05-3.68,10.37v28.84c0,8.54-4.27,12.81-12.8,12.81-4.12,0-7.29-1.11-9.49-3.31-2.21-2.21-3.31-5.38-3.31-9.5v-80.79c0-4.21,1.1-7.4,3.31-9.56,2.2-2.16,5.37-3.24,9.49-3.24s7.16,1.08,9.42,3.24c2.25,2.16,3.38,5.35,3.38,9.56v28.87c2.09-2.81,4.69-5.1,7.8-6.87,4.42-2.5,9.42-3.75,15.01-3.75s10.43,1.1,14.2,3.31c3.78,2.21,6.6,5.62,8.46,10.23,1.87,4.61,2.8,10.45,2.8,17.51Z"/>
    <path class="cls-1" d="M615.3,376.89c-7.95,0-14.89-1.52-20.82-4.56-5.94-3.04-10.55-7.41-13.83-13.1-3.29-5.69-4.93-12.41-4.93-20.16,0-5.89.93-11.16,2.8-15.82,1.86-4.66,4.54-8.63,8.02-11.92,3.48-3.29,7.67-5.79,12.58-7.51,4.9-1.71,10.3-2.58,16.19-2.58,8.04,0,15.03,1.52,20.97,4.56,5.93,3.04,10.54,7.38,13.83,13.02,3.29,5.64,4.93,12.39,4.93,20.23,0,5.89-.93,11.14-2.8,15.75-1.87,4.61-4.54,8.59-8.02,11.92-3.48,3.34-7.68,5.86-12.58,7.58-4.91,1.72-10.35,2.58-16.33,2.58ZM615.3,358.05c2.84,0,5.32-.66,7.43-1.99,2.11-1.32,3.75-3.38,4.93-6.18,1.18-2.8,1.77-6.4,1.77-10.82,0-6.67-1.3-11.5-3.9-14.5-2.6-2.99-6.01-4.49-10.23-4.49-2.65,0-5.05.66-7.21,1.99-2.16,1.32-3.83,3.38-5,6.18-1.18,2.8-1.77,6.4-1.77,10.82,0,6.67,1.3,11.5,3.9,14.5,2.6,2.99,5.96,4.49,10.08,4.49Z"/>
    <path class="cls-1" d="M703.45,376.89c-7.95,0-14.89-1.52-20.82-4.56-5.94-3.04-10.55-7.41-13.83-13.1-3.29-5.69-4.93-12.41-4.93-20.16,0-5.89.93-11.16,2.8-15.82,1.86-4.66,4.54-8.63,8.02-11.92,3.48-3.29,7.67-5.79,12.58-7.51,4.9-1.71,10.3-2.58,16.19-2.58,8.04,0,15.03,1.52,20.97,4.56,5.93,3.04,10.54,7.38,13.83,13.02,3.29,5.64,4.93,12.39,4.93,20.23,0,5.89-.93,11.14-2.8,15.75-1.87,4.61-4.54,8.59-8.02,11.92-3.48,3.34-7.68,5.86-12.58,7.58-4.91,1.72-10.35,2.58-16.33,2.58ZM703.45,358.05c2.84,0,5.32-.66,7.43-1.99,2.11-1.32,3.75-3.38,4.93-6.18,1.18-2.8,1.77-6.4,1.77-10.82,0-6.67-1.3-11.5-3.9-14.5-2.6-2.99-6.01-4.49-10.23-4.49-2.65,0-5.05.66-7.21,1.99-2.16,1.32-3.83,3.38-5,6.18-1.18,2.8-1.77,6.4-1.77,10.82,0,6.67,1.3,11.5,3.9,14.5,2.6,2.99,5.96,4.49,10.08,4.49Z"/>
    <path class="cls-1" d="M768.06,376.59c-4.12,0-7.28-1.1-9.49-3.31s-3.31-5.37-3.31-9.49v-80.79c0-4.22,1.1-7.41,3.31-9.57,2.21-2.16,5.37-3.24,9.49-3.24s7.16,1.08,9.42,3.24c2.26,2.16,3.38,5.35,3.38,9.57v80.79c0,8.54-4.27,12.8-12.8,12.8Z"/>
  </g>
</svg>