<?xml version="1.0" encoding="UTF-8"?>
<svg id="Layer_1" data-name="Layer 1" xmlns="http://www.w3.org/2000/svg" viewBox="0 0 1611.18 202.63">
  <defs>
    <style>
      .cls-1 {
        fill: #fff;
      }
    </style>
  </defs>
  <g>
    <rect class="cls-1" x="45.82" y="4.46" width="25.95" height="25.95" rx="12.98" ry="12.98"/>
    <path class="cls-1" d="M115.92,186.37l-24.17-75.66c-.2-.61-.31-1.24-.35-1.88l-2.36-42.24c-.06-1.16.14-2.32.59-3.39l22.13-51.95c1.56-3.66.22-7.92-3.15-10.03h0c-4.1-2.56-9.51-.98-11.59,3.39l-19.57,41.19c-1.46,3.07-4.78,4.79-8.12,4.22l-60.47-10.35C4.19,38.87-.06,42.51,0,47.24h0c.05,3.49,2.47,6.5,5.88,7.29l57.78,13.28c3.37.78,5.79,3.74,5.88,7.2l.72,28.62c.09,3.52-2.26,6.63-5.66,7.52l-54.75,14.28c-5.57,1.45-9.45,6.48-9.45,12.23h0c0,8.73,8.63,14.83,16.86,11.91l51.8-18.35c4.27-1.51,8.9,1.03,9.92,5.45l12.92,56.29c1.3,5.66,6.34,9.67,12.15,9.67h0c8.44,0,14.44-8.21,11.87-16.26Z"/>
  </g>
  <g>
    <path class="cls-1" d="M290.9,141.78c.1,2.37-.62,4.32-2.16,5.87-1.53,1.53-3.81,2.31-6.78,2.31-2.57,0-4.62-.52-6.17-1.54-1.53-1.03-3.34-2.62-5.39-4.78l-44.71-45.02h-.31v40.86c0,3.19-.85,5.74-2.55,7.63-1.69,1.9-4.28,2.86-7.78,2.86-3.29,0-5.81-.96-7.55-2.86-1.75-1.89-2.62-4.44-2.62-7.63V49.12c0-3.29.87-5.84,2.62-7.63,1.74-1.8,4.26-2.7,7.55-2.7s5.96.9,7.71,2.7c1.74,1.79,2.62,4.34,2.62,7.63v38.86h.31l43.63-44.1c1.64-1.64,3.32-2.91,5.01-3.79,1.7-.87,3.63-1.31,5.79-1.31,3.08,0,5.29.8,6.63,2.39s1.87,3.47,1.62,5.63c-.26,2.15-1.27,4.1-3.01,5.86l-39.54,39.53,41.7,42.95c2.16,2.06,3.3,4.26,3.4,6.63Z"/>
    <path class="cls-1" d="M316.34,58.06c-3.8,0-6.73-.92-8.79-2.77-2.06-1.85-3.08-4.42-3.08-7.71s1.03-5.83,3.08-7.63c2.05-1.8,4.98-2.7,8.79-2.7s6.58.9,8.64,2.7c2.05,1.8,3.08,4.34,3.08,7.63s-1.03,5.86-3.08,7.71c-2.06,1.85-4.93,2.77-8.64,2.77ZM316.34,149.8c-3.29,0-5.81-.95-7.56-2.85-1.75-1.9-2.62-4.55-2.62-7.94v-55.81c0-3.6.87-6.32,2.62-8.17,1.75-1.85,4.26-2.77,7.56-2.77,3.08,0,5.52.92,7.32,2.77,1.8,1.85,2.7,4.57,2.7,8.17v55.81c0,3.39-.87,6.04-2.62,7.94-1.75,1.9-4.22,2.85-7.4,2.85Z"/>
    <path class="cls-1" d="M417.49,102.77v37c0,3.3-.88,5.81-2.62,7.56-1.74,1.74-4.26,2.62-7.55,2.62-3.09,0-5.53-.88-7.32-2.62-1.8-1.75-2.7-4.26-2.7-7.56v-35.92c0-5.76-1.06-9.92-3.16-12.49-2.11-2.57-5.43-3.86-9.94-3.86-5.56,0-9.95,1.69-13.19,5.09-3.24,3.39-4.85,7.96-4.85,13.72v33.46c0,6.78-3.34,10.18-10.02,10.18-3.29,0-5.81-.88-7.55-2.62s-2.62-4.26-2.62-7.56v-57.66c0-3.3.87-5.81,2.62-7.56s4.21-2.62,7.39-2.62,5.48.88,7.17,2.62c1.69,1.75,2.54,4.26,2.54,7.56v2.73c2.18-3.79,5.12-6.77,8.8-8.98,4.72-2.83,10.17-4.24,16.34-4.24s11.05,1.16,14.95,3.47c3.91,2.31,6.83,5.79,8.79,10.41,1.95,4.62,2.93,10.38,2.93,17.27Z"/>
    <path class="cls-1" d="M502.6,131.15c-1.04-1.14-2.37-1.77-4.02-1.93-1.64-.15-3.6.34-5.86,1.46-2.88,1.64-5.99,2.78-9.33,3.4-3.35.62-6.35.93-9.02.93-7.51,0-13.21-2.01-17.12-6.02-3.06-3.14-4.92-7.61-5.58-13.41h46.44c2.36,0,4.16-.52,5.39-1.54,1.24-1.03,1.85-2.41,1.85-4.16,0-5.86-.8-11.15-2.39-15.88-1.59-4.72-3.91-8.76-6.93-12.11-3.04-3.34-6.71-5.88-11.03-7.63-4.31-1.74-9.15-2.62-14.49-2.62-7.4,0-13.96,1.67-19.67,5.01-5.7,3.34-10.2,7.94-13.49,13.8-3.29,5.86-4.93,12.69-4.93,20.5s1.67,15.11,5.01,20.97c3.34,5.86,8.12,10.38,14.34,13.57,6.22,3.19,13.7,4.78,22.44,4.78,3.91,0,8.17-.55,12.79-1.62,4.63-1.08,8.74-2.7,12.34-4.85,1.84-1.14,3.21-2.49,4.08-4.08.87-1.59,1.21-3.14,1-4.63-.21-1.48-.83-2.8-1.84-3.93ZM453.72,96.45c1.54-3.6,3.8-6.38,6.79-8.33,2.98-1.95,6.58-2.93,10.79-2.93,3.81,0,6.96.83,9.49,2.47,2.51,1.64,4.47,4.04,5.86,7.16,1.15,2.6,1.82,5.71,2.01,9.34h-36.92c.35-2.86,1.02-5.43,1.99-7.71Z"/>
    <path class="cls-1" d="M555.02,150.26c-7.92,0-14.78-1.59-20.58-4.78-5.81-3.18-10.31-7.73-13.49-13.64-3.19-5.91-4.78-12.87-4.78-20.89,0-6.17.93-11.64,2.78-16.42,1.85-4.78,4.47-8.89,7.86-12.33,3.39-3.44,7.48-6.06,12.26-7.86,4.78-1.8,10.1-2.7,15.96-2.7,7.91,0,14.78,1.59,20.58,4.78,5.81,3.19,10.33,7.71,13.57,13.57,3.24,5.86,4.86,12.85,4.86,20.97,0,6.07-.93,11.51-2.77,16.34-1.85,4.83-4.47,8.97-7.86,12.41-3.39,3.44-7.5,6.07-12.34,7.86-4.83,1.8-10.18,2.7-16.04,2.7ZM555.02,135c3.8,0,7.09-.87,9.87-2.62,2.78-1.75,4.93-4.42,6.48-8.02,1.54-3.6,2.31-8.07,2.31-13.41,0-8.12-1.72-14.16-5.17-18.12-3.44-3.96-7.94-5.94-13.49-5.94-3.7,0-6.96.87-9.79,2.62-2.83,1.75-4.99,4.39-6.48,7.94-1.49,3.55-2.24,8.04-2.24,13.49,0,8.02,1.67,14.03,5.01,18.04,3.34,4.01,7.84,6.01,13.49,6.01Z"/>
    <path class="cls-1" d="M664.34,148.72c-3.49,0-6.17-.95-8.02-2.85-1.85-1.9-2.77-4.55-2.77-7.94V50.81c0-3.39.92-6.04,2.77-7.94,1.85-1.9,4.52-2.85,8.02-2.85h29.91c18.4,0,32.56,4.68,42.48,14.03,9.92,9.36,14.88,22.77,14.88,40.24,0,8.74-1.26,16.47-3.78,23.2-2.52,6.73-6.24,12.41-11.18,17.04s-10.92,8.15-17.96,10.56c-7.04,2.42-15.19,3.62-24.44,3.62h-29.91ZM674.05,131.76h19.12c6.17,0,11.56-.77,16.19-2.31,4.63-1.54,8.48-3.85,11.56-6.94,3.08-3.08,5.37-6.99,6.86-11.72,1.49-4.73,2.24-10.23,2.24-16.5,0-12.54-3.06-21.89-9.17-28.06-6.12-6.17-15.34-9.25-27.68-9.25h-19.12v74.78Z"/>
    <path class="cls-1" d="M840.11,74.55c-1.75-1.74-4.21-2.62-7.4-2.62s-5.53.88-7.32,2.62c-1.8,1.75-2.7,4.26-2.7,7.56v2.58c-1.78-3.33-4.41-6.15-7.86-8.45-4.62-3.08-10.07-4.62-16.34-4.62-6.59,0-12.36,1.59-17.35,4.78-4.99,3.19-8.87,7.68-11.65,13.49-2.77,5.81-4.16,12.82-4.16,21.04s1.39,14.98,4.16,20.89c2.78,5.92,6.66,10.46,11.65,13.65,4.98,3.19,10.76,4.78,17.35,4.78s11.8-1.57,16.57-4.7c3.38-2.22,5.93-4.96,7.63-8.23v2.44c0,3.3.88,5.81,2.62,7.56,1.75,1.74,4.21,2.62,7.4,2.62s5.65-.88,7.4-2.62c1.74-1.75,2.62-4.26,2.62-7.56v-57.66c0-3.3-.88-5.81-2.62-7.56ZM820.53,124.36c-1.54,3.6-3.71,6.27-6.48,8.01-2.78,1.75-6.07,2.63-9.87,2.63-5.65,0-10.15-2.01-13.49-6.02-3.34-4.01-5.01-10.02-5.01-18.04,0-5.44.75-9.94,2.24-13.49,1.48-3.55,3.65-6.19,6.48-7.94,2.82-1.74,6.09-2.62,9.78-2.62,5.55,0,10.05,1.98,13.49,5.94,3.45,3.96,5.17,10,5.17,18.11,0,5.35-.78,9.82-2.31,13.42Z"/>
    <path class="cls-1" d="M933.69,102.77v37c0,3.3-.87,5.81-2.62,7.56s-4.26,2.62-7.55,2.62c-3.08,0-5.53-.88-7.32-2.62-1.8-1.75-2.7-4.26-2.7-7.56v-35.92c0-5.76-1.06-9.92-3.16-12.49-2.11-2.57-5.42-3.86-9.94-3.86-5.55,0-9.94,1.69-13.18,5.09-3.24,3.39-4.86,7.96-4.86,13.72v33.46c0,6.78-3.34,10.18-10.02,10.18-3.29,0-5.81-.88-7.55-2.62s-2.62-4.26-2.62-7.56v-57.66c0-3.3.87-5.81,2.62-7.56s4.21-2.62,7.4-2.62,5.47.88,7.16,2.62c1.7,1.75,2.55,4.26,2.55,7.56v2.72c2.18-3.78,5.11-6.76,8.79-8.97,4.72-2.83,10.17-4.24,16.34-4.24s11.05,1.16,14.95,3.47c3.91,2.31,6.83,5.79,8.79,10.41s2.93,10.38,2.93,17.27Z"/>
    <path class="cls-1" d="M987.97,150.26c-8.02,0-14.98-1.62-20.89-4.86-5.91-3.24-10.46-7.84-13.64-13.8-3.19-5.96-4.78-12.95-4.78-20.97,0-6.06.93-11.51,2.78-16.34,1.85-4.83,4.47-8.92,7.86-12.26,3.39-3.34,7.5-5.91,12.33-7.71,4.83-1.8,10.28-2.7,16.34-2.7,3.39,0,7.02.46,10.87,1.39s7.53,2.47,11.02,4.63c1.75.93,2.9,2.13,3.47,3.62.56,1.49.72,3.01.46,4.55-.26,1.54-.87,2.88-1.85,4.01-.98,1.13-2.24,1.88-3.78,2.24-1.54.36-3.19.03-4.93-1-2.16-1.23-4.39-2.18-6.71-2.85-2.31-.67-4.55-1-6.71-1-3.29,0-6.19.54-8.71,1.62-2.52,1.08-4.68,2.6-6.48,4.55-1.8,1.95-3.14,4.37-4.01,7.25-.87,2.88-1.31,6.27-1.31,10.18,0,7.5,1.77,13.39,5.32,17.65,3.55,4.27,8.61,6.4,15.19,6.4,2.16,0,4.37-.31,6.63-.93,2.26-.62,4.52-1.59,6.78-2.93,1.75-.93,3.37-1.21,4.86-.85,1.49.36,2.7,1.11,3.62,2.23.93,1.13,1.46,2.49,1.62,4.09.15,1.59-.05,3.11-.62,4.55-.57,1.44-1.72,2.67-3.47,3.7-3.29,1.85-6.81,3.24-10.56,4.16-3.75.93-7.32,1.39-10.72,1.39Z"/>
    <path class="cls-1" d="M1091.74,131.15c-1.04-1.14-2.37-1.77-4.02-1.93-1.64-.15-3.6.34-5.86,1.46-2.88,1.64-5.99,2.78-9.33,3.4-3.35.62-6.35.93-9.03.93-7.5,0-13.2-2.01-17.11-6.02-3.06-3.14-4.92-7.61-5.58-13.41h46.44c2.36,0,4.16-.52,5.39-1.54,1.24-1.03,1.85-2.41,1.85-4.16,0-5.86-.8-11.15-2.39-15.88-1.59-4.72-3.91-8.76-6.93-12.11-3.04-3.34-6.71-5.88-11.03-7.63-4.31-1.74-9.15-2.62-14.49-2.62-7.4,0-13.96,1.67-19.67,5.01-5.7,3.34-10.2,7.94-13.49,13.8-3.29,5.86-4.93,12.69-4.93,20.5s1.67,15.11,5.01,20.97c3.34,5.86,8.12,10.38,14.34,13.57,6.22,3.19,13.7,4.78,22.44,4.78,3.91,0,8.17-.55,12.79-1.62,4.63-1.08,8.74-2.7,12.34-4.85,1.84-1.14,3.21-2.49,4.08-4.08.87-1.59,1.21-3.14,1-4.63-.21-1.48-.83-2.8-1.84-3.93ZM1042.86,96.45c1.54-3.6,3.8-6.38,6.79-8.33,2.98-1.95,6.58-2.93,10.79-2.93,3.81,0,6.96.83,9.49,2.47,2.51,1.64,4.47,4.04,5.86,7.16,1.15,2.6,1.82,5.71,2.01,9.34h-36.92c.35-2.86,1.02-5.43,1.99-7.71Z"/>
    <path class="cls-1" d="M1191.03,150.26c-4.42,0-8.89-.31-13.41-.93-4.52-.62-8.79-1.62-12.8-3.01s-7.61-3.11-10.79-5.17c-1.85-1.23-3.19-2.75-4.01-4.55-.82-1.8-1.11-3.57-.85-5.32.25-1.75.95-3.29,2.08-4.63,1.13-1.33,2.54-2.18,4.24-2.54,1.7-.36,3.62.08,5.78,1.31,4.42,2.57,9.15,4.47,14.18,5.71,5.04,1.23,10.23,1.85,15.57,1.85,8.12,0,13.98-1.33,17.58-4.01,3.6-2.67,5.4-6.06,5.4-10.18,0-3.39-1.29-6.11-3.85-8.17-2.57-2.05-6.94-3.7-13.11-4.93l-17.27-3.7c-9.77-2.05-17.01-5.52-21.74-10.41-4.73-4.88-7.09-11.33-7.09-19.35,0-5.04,1.03-9.61,3.08-13.72,2.06-4.11,4.98-7.68,8.79-10.72,3.8-3.03,8.3-5.34,13.49-6.94,5.19-1.59,10.92-2.39,17.19-2.39s12.03.77,17.58,2.31c5.55,1.54,10.54,3.7,14.96,6.48,1.64,1.23,2.78,2.7,3.39,4.39s.77,3.37.46,5.01c-.31,1.65-1.03,3.06-2.16,4.24-1.13,1.18-2.57,1.9-4.32,2.16-1.75.26-3.75-.23-6.01-1.47-3.7-2.05-7.53-3.55-11.49-4.47-3.96-.93-8.15-1.39-12.57-1.39s-8.46.67-11.8,2c-3.34,1.34-5.91,3.14-7.71,5.4-1.8,2.26-2.7,4.99-2.7,8.17,0,3.7,1.23,6.61,3.7,8.71,2.47,2.11,6.63,3.73,12.49,4.86l16.81,3.7c10.18,2.16,17.73,5.58,22.67,10.25,4.93,4.68,7.4,10.82,7.4,18.43,0,5.04-.98,9.56-2.93,13.57-1.95,4.01-4.83,7.48-8.63,10.41-3.8,2.93-8.35,5.17-13.64,6.71-5.3,1.54-11.28,2.31-17.96,2.31Z"/>
    <path class="cls-1" d="M1284.31,150.26c-8.02,0-14.98-1.62-20.89-4.86-5.91-3.24-10.46-7.84-13.64-13.8-3.19-5.96-4.78-12.95-4.78-20.97,0-6.06.93-11.51,2.78-16.34,1.85-4.83,4.47-8.92,7.86-12.26,3.39-3.34,7.5-5.91,12.33-7.71,4.83-1.8,10.28-2.7,16.34-2.7,3.39,0,7.02.46,10.87,1.39s7.53,2.47,11.02,4.63c1.75.93,2.9,2.13,3.47,3.62.56,1.49.72,3.01.46,4.55-.26,1.54-.87,2.88-1.85,4.01-.98,1.13-2.24,1.88-3.78,2.24-1.54.36-3.19.03-4.93-1-2.16-1.23-4.39-2.18-6.71-2.85-2.31-.67-4.55-1-6.71-1-3.29,0-6.19.54-8.71,1.62-2.52,1.08-4.68,2.6-6.48,4.55-1.8,1.95-3.14,4.37-4.01,7.25-.87,2.88-1.31,6.27-1.31,10.18,0,7.5,1.77,13.39,5.32,17.65,3.55,4.27,8.61,6.4,15.19,6.4,2.16,0,4.37-.31,6.63-.93,2.26-.62,4.52-1.59,6.78-2.93,1.75-.93,3.37-1.21,4.86-.85,1.49.36,2.7,1.11,3.62,2.23.93,1.13,1.46,2.49,1.62,4.09.15,1.59-.05,3.11-.62,4.55-.57,1.44-1.72,2.67-3.47,3.7-3.29,1.85-6.81,3.24-10.56,4.16-3.75.93-7.32,1.39-10.72,1.39Z"/>
    <path class="cls-1" d="M1393.48,102.77v37c0,3.3-.88,5.81-2.62,7.56-1.75,1.74-4.27,2.62-7.56,2.62-3.08,0-5.52-.88-7.32-2.62-1.79-1.75-2.7-4.26-2.7-7.56v-35.92c0-5.76-1.06-9.92-3.16-12.49-2.1-2.57-5.42-3.86-9.94-3.86-5.55,0-9.94,1.69-13.18,5.09-3.24,3.39-4.86,7.96-4.86,13.72v33.46c0,6.78-3.34,10.18-10.02,10.18-3.29,0-5.81-.88-7.55-2.62-1.74-1.75-2.62-4.26-2.62-7.56V48.96c0-3.39.88-5.94,2.62-7.63,1.74-1.69,4.26-2.54,7.55-2.54,3.09,0,5.53.85,7.33,2.54,1.79,1.69,2.69,4.24,2.69,7.63v35.13c2.12-3.43,4.9-6.17,8.33-8.22,4.72-2.83,10.17-4.24,16.34-4.24s11.05,1.14,14.96,3.4c3.9,2.26,6.83,5.7,8.79,10.32,1.95,4.63,2.93,10.44,2.93,17.43Z"/>
    <path class="cls-1" d="M1447.28,150.26c-7.92,0-14.78-1.59-20.58-4.78-5.81-3.18-10.31-7.73-13.49-13.64-3.19-5.91-4.78-12.87-4.78-20.89,0-6.17.93-11.64,2.78-16.42,1.85-4.78,4.47-8.89,7.86-12.33,3.39-3.44,7.48-6.06,12.26-7.86,4.78-1.8,10.1-2.7,15.96-2.7,7.91,0,14.78,1.59,20.58,4.78,5.81,3.19,10.33,7.71,13.57,13.57,3.24,5.86,4.86,12.85,4.86,20.97,0,6.07-.93,11.51-2.77,16.34-1.85,4.83-4.47,8.97-7.86,12.41-3.39,3.44-7.5,6.07-12.34,7.86-4.83,1.8-10.18,2.7-16.04,2.7ZM1447.28,135c3.8,0,7.09-.87,9.87-2.62,2.78-1.75,4.93-4.42,6.48-8.02,1.54-3.6,2.31-8.07,2.31-13.41,0-8.12-1.72-14.16-5.17-18.12-3.44-3.96-7.94-5.94-13.49-5.94-3.7,0-6.96.87-9.79,2.62-2.83,1.75-4.99,4.39-6.48,7.94-1.49,3.55-2.24,8.04-2.24,13.49,0,8.02,1.67,14.03,5.01,18.04,3.34,4.01,7.84,6.01,13.49,6.01Z"/>
    <path class="cls-1" d="M1536.56,150.26c-7.92,0-14.78-1.59-20.58-4.78-5.81-3.18-10.31-7.73-13.49-13.64-3.19-5.91-4.78-12.87-4.78-20.89,0-6.17.93-11.64,2.78-16.42,1.85-4.78,4.47-8.89,7.86-12.33,3.39-3.44,7.48-6.06,12.26-7.86,4.78-1.8,10.1-2.7,15.96-2.7,7.91,0,14.78,1.59,20.58,4.78,5.81,3.19,10.33,7.71,13.57,13.57,3.24,5.86,4.86,12.85,4.86,20.97,0,6.07-.93,11.51-2.77,16.34-1.85,4.83-4.47,8.97-7.86,12.41-3.39,3.44-7.5,6.07-12.34,7.86-4.83,1.8-10.18,2.7-16.04,2.7ZM1536.56,135c3.8,0,7.09-.87,9.87-2.62,2.78-1.75,4.93-4.42,6.48-8.02,1.54-3.6,2.31-8.07,2.31-13.41,0-8.12-1.72-14.16-5.17-18.12-3.44-3.96-7.94-5.94-13.49-5.94-3.7,0-6.96.87-9.79,2.62-2.83,1.75-4.99,4.39-6.48,7.94-1.49,3.55-2.24,8.04-2.24,13.49,0,8.02,1.67,14.03,5.01,18.04,3.34,4.01,7.84,6.01,13.49,6.01Z"/>
    <path class="cls-1" d="M1601.16,149.95c-3.29,0-5.81-.87-7.56-2.62-1.75-1.75-2.62-4.26-2.62-7.56V48.96c0-3.49.87-6.06,2.62-7.71,1.75-1.64,4.26-2.47,7.56-2.47,3.08,0,5.52.82,7.32,2.47,1.8,1.65,2.7,4.22,2.7,7.71v90.82c0,6.78-3.34,10.18-10.02,10.18Z"/>
  </g>
</svg>