<?xml version="1.0" encoding="UTF-8"?>
<svg id="Layer_1" data-name="Layer 1" xmlns="http://www.w3.org/2000/svg" viewBox="0 0 266.14 462.84">
  <defs>
    <style>
      .cls-1 {
        fill: #fff;
      }
    </style>
  </defs>
  <rect class="cls-1" x="104.67" y="10.18" width="59.28" height="59.28" rx="29.64" ry="29.64"/>
  <path class="cls-1" d="M264.77,425.71l-55.21-172.81c-.45-1.39-.71-2.84-.79-4.3l-5.4-96.47c-.15-2.65.32-5.31,1.36-7.75l50.55-118.66c3.56-8.37.51-18.08-7.2-22.9h0c-9.36-5.85-21.73-2.24-26.47,7.74l-44.7,94.08c-3.33,7.01-10.91,10.94-18.55,9.63L20.23,90.62C9.57,88.79-.14,97.09,0,107.91h0c.1,7.98,5.65,14.85,13.43,16.64l131.98,30.33c7.7,1.77,13.23,8.53,13.43,16.44l1.64,65.37c.2,8.04-5.16,15.15-12.93,17.18l-125.05,32.62c-12.71,3.32-21.58,14.8-21.58,27.93h0c0,19.93,19.72,33.87,38.51,27.21l118.32-41.91c9.75-3.45,20.34,2.36,22.65,12.44l29.51,128.57c2.97,12.93,14.48,22.1,27.75,22.1h0c19.28,0,32.98-18.76,27.12-37.13Z"/>
</svg>