<?xml version="1.0" encoding="UTF-8"?>
<svg id="Layer_1" data-name="Layer 1" xmlns="http://www.w3.org/2000/svg" viewBox="0 0 706.48 202.63">
  <defs>
    <style>
      .cls-1 {
        fill: #fff;
      }
    </style>
  </defs>
  <g>
    <rect class="cls-1" x="45.82" y="4.46" width="25.95" height="25.95" rx="12.98" ry="12.98"/>
    <path class="cls-1" d="M115.92,186.37l-24.17-75.66c-.2-.61-.31-1.24-.35-1.88l-2.36-42.24c-.06-1.16.14-2.32.59-3.39l22.13-51.95c1.56-3.66.22-7.92-3.15-10.03h0c-4.1-2.56-9.51-.98-11.59,3.39l-19.57,41.19c-1.46,3.07-4.78,4.79-8.12,4.22l-60.47-10.35C4.19,38.87-.06,42.51,0,47.24h0c.05,3.49,2.47,6.5,5.88,7.29l57.78,13.28c3.37.78,5.79,3.74,5.88,7.2l.72,28.62c.09,3.52-2.26,6.63-5.66,7.52l-54.75,14.28c-5.57,1.45-9.45,6.48-9.45,12.23h0c0,8.73,8.63,14.83,16.86,11.91l51.8-18.35c4.27-1.51,8.9,1.03,9.92,5.45l12.92,56.29c1.3,5.66,6.34,9.67,12.15,9.67h0c8.44,0,14.44-8.21,11.87-16.26Z"/>
  </g>
  <g>
    <path class="cls-1" d="M209.76,171.74c-3.72,0-6.55-1.03-8.48-3.1-1.93-2.07-2.9-4.96-2.9-8.69V34.16c0-3.72.96-6.58,2.9-8.59,1.93-2,4.76-3,8.48-3s6.34,1,8.28,3c1.93,2,2.9,4.86,2.9,8.59v55.44h.41l62.69-61.03c2.07-2.07,4.07-3.58,6-4.55,1.93-.96,4.14-1.45,6.62-1.45,3.31,0,5.72.9,7.24,2.69,1.52,1.79,2.14,3.86,1.86,6.21-.28,2.35-1.45,4.48-3.52,6.41l-64.75,62.27.41-10.76,67.44,65.79c2.48,2.35,3.79,4.83,3.93,7.45.14,2.62-.66,4.79-2.38,6.52-1.73,1.72-4.24,2.59-7.55,2.59-2.76,0-5.04-.62-6.83-1.86-1.79-1.24-3.86-2.96-6.21-5.17l-64.96-62.69h-.41v57.93c0,3.72-.93,6.62-2.79,8.69-1.86,2.07-4.65,3.1-8.38,3.1Z"/>
    <path class="cls-1" d="M341.13,46.98c-4.14,0-7.42-1.07-9.83-3.21-2.42-2.14-3.62-5.14-3.62-9s1.21-7.03,3.62-9.1c2.41-2.07,5.69-3.1,9.83-3.1,4.41,0,7.79,1.03,10.14,3.1,2.34,2.07,3.52,5.1,3.52,9.1s-1.17,6.86-3.52,9c-2.35,2.14-5.72,3.21-10.14,3.21ZM341.13,171.32c-3.45,0-6.14-1.07-8.07-3.21-1.93-2.14-2.9-5.07-2.9-8.79v-79.44c0-3.86.96-6.83,2.9-8.9,1.93-2.07,4.62-3.1,8.07-3.1s6.34,1.03,8.28,3.1c1.93,2.07,2.9,5.04,2.9,8.9v79.44c0,3.72-.93,6.66-2.79,8.79-1.86,2.14-4.65,3.21-8.38,3.21Z"/>
    <path class="cls-1" d="M392.02,171.74c-3.45,0-6.14-1-8.07-3-1.93-2-2.9-4.79-2.9-8.38v-81.51c0-3.72.96-6.52,2.9-8.38,1.93-1.86,4.62-2.79,8.07-2.79s5.93.93,7.86,2.79c1.93,1.86,2.9,4.66,2.9,8.38v15.52l-2.28-4.14c2.9-7.58,7.58-13.31,14.07-17.17,6.48-3.86,13.86-5.79,22.14-5.79s14.82,1.48,20.07,4.45c5.24,2.97,9.17,7.45,11.79,13.45,2.62,6,3.93,13.62,3.93,22.86v52.34c0,3.59-.93,6.38-2.79,8.38-1.86,2-4.59,3-8.17,3s-6.14-1-8.07-3c-1.93-2-2.9-4.79-2.9-8.38v-51.31c0-8.41-1.66-14.55-4.97-18.41-3.31-3.86-8.41-5.79-15.31-5.79-8.27,0-14.86,2.55-19.76,7.66-4.9,5.1-7.34,11.93-7.34,20.48v47.38c0,7.59-3.72,11.38-11.17,11.38Z"/>
    <path class="cls-1" d="M548.84,172.15c-11.17,0-20.76-2.14-28.76-6.41-8-4.27-14.21-10.31-18.62-18.1-4.42-7.79-6.62-17.07-6.62-27.83s2.14-19.65,6.41-27.52c4.27-7.86,10.17-14,17.69-18.41,7.52-4.41,16.1-6.62,25.76-6.62,7.03,0,13.31,1.14,18.83,3.41,5.51,2.28,10.27,5.59,14.28,9.93,4,4.34,7.03,9.62,9.1,15.83,2.07,6.21,3.1,13.17,3.1,20.9,0,2.35-.76,4.14-2.28,5.38-1.52,1.24-3.72,1.86-6.62,1.86h-68.69v-13.24h62.27l-3.31,2.9c0-6.76-1-12.48-3-17.17-2-4.69-4.9-8.28-8.69-10.76-3.79-2.48-8.58-3.72-14.38-3.72-6.21,0-11.52,1.48-15.93,4.45-4.42,2.97-7.76,7.07-10.03,12.31-2.28,5.24-3.41,11.38-3.41,18.41v1.45c0,11.86,2.83,20.79,8.48,26.79,5.65,6,13.86,9,24.62,9,4,0,8.28-.52,12.83-1.55,4.55-1.03,8.9-2.79,13.03-5.28,2.48-1.52,4.69-2.2,6.62-2.07,1.93.14,3.48.79,4.66,1.96,1.17,1.17,1.93,2.62,2.28,4.34.34,1.73.07,3.52-.83,5.38-.9,1.86-2.45,3.48-4.66,4.86-4.69,3.17-10.17,5.55-16.45,7.14-6.28,1.58-12.17,2.38-17.69,2.38Z"/>
    <path class="cls-1" d="M656.42,172.15c-10.21,0-19.07-2.14-26.58-6.41-7.52-4.27-13.34-10.38-17.48-18.31-4.14-7.93-6.21-17.2-6.21-27.83,0-8.14,1.17-15.41,3.52-21.83,2.34-6.41,5.72-11.9,10.14-16.45,4.41-4.55,9.72-8.03,15.93-10.45,6.21-2.41,13.1-3.62,20.69-3.62,10.21,0,19.03,2.14,26.48,6.41,7.45,4.28,13.24,10.31,17.38,18.1,4.14,7.79,6.21,17.07,6.21,27.83,0,8-1.17,15.24-3.52,21.72-2.35,6.48-5.72,12.04-10.14,16.65-4.42,4.62-9.69,8.14-15.83,10.55-6.14,2.41-13,3.62-20.58,3.62ZM656.42,154.98c5.51,0,10.38-1.34,14.58-4.03,4.21-2.69,7.48-6.65,9.83-11.9,2.34-5.24,3.52-11.72,3.52-19.45,0-11.72-2.55-20.55-7.65-26.48-5.1-5.93-11.86-8.9-20.27-8.9-5.66,0-10.59,1.34-14.79,4.03-4.21,2.69-7.45,6.66-9.72,11.9-2.28,5.24-3.41,11.72-3.41,19.45,0,11.45,2.55,20.21,7.66,26.27,5.1,6.07,11.86,9.1,20.27,9.1Z"/>
  </g>
</svg>