<svg id="Layer_1" data-name="Layer 1" xmlns="http://www.w3.org/2000/svg" viewBox="0 0 1286 637"><defs><style>.cls-1{fill:#fff;}</style></defs><rect class="cls-1" x="372" y="109" width="82" height="420"/><polygon class="cls-1" points="763 111.81 762.31 530.2 687 530.2 687 530.89 579 299.35 578.62 530.2 504 530.2 504 111.81 580 111.81 580 110.89 688 375.2 688 111.81 763 111.81"/><path class="cls-1" d="M1110.5,110.61l-29,132.6V530.39l205,.22v-420Zm102,339.25h-51V191.14h51Z" transform="translate(-0.5)"/><path class="cls-1" d="M1031.5,236l27-126-245-.16V530l218,.23V412h-130V361h130V287.22L902.5,254V200.72Zm-83,209h50v50h-50Z" transform="translate(-0.5)"/><polygon class="cls-1" points="82 80 82 369.02 219.2 110 322.21 110 206 315 323 528 222 528 159 397 85.31 528 0 528 0 0 1286 0 1286 80 82 80"/><rect class="cls-1" y="557" width="1286" height="80"/></svg>